<?xml version="1.0" encoding="utf-8"?>
<!-- Generator: Adobe Illustrator 17.1.0, SVG Export Plug-In . SVG Version: 6.00 Build 0)  -->
<!DOCTYPE svg PUBLIC "-//W3C//DTD SVG 1.1//EN" "http://www.w3.org/Graphics/SVG/1.1/DTD/svg11.dtd">
<svg version="1.1" id="Layer_1" xmlns="http://www.w3.org/2000/svg" xmlns:xlink="http://www.w3.org/1999/xlink" x="0px" y="0px"
	 viewBox="0 0 38.8 38.8" style="enable-background:new 0 0 38.8 38.8;" xml:space="preserve">
<style type="text/css">
	.st0{display:none;}
	.st1{display:inline;fill:none;stroke:#C0C0C0;stroke-miterlimit:10;}
	.st2{display:inline;}
	.st3{fill:#50525A;}
	.st4{fill:#C0C0C0;}
</style>
<g class="st0">
	<circle class="st1" cx="15.6" cy="13.9" r="18.9"/>
	<g class="st2">
		<path class="st3" d="M19.1,19.9h-1v-8h-2v8h-1v-8h-2v8h-1v-8h-2v9.5c0,0.3,0.2,0.5,0.5,0.5h10c0.3,0,0.5-0.2,0.5-0.5v-9.5h-2V19.9
			z"/>
		<path class="st3" d="M22.1,7.9h-4V6.4c0-0.3-0.2-0.5-0.5-0.5h-4c-0.3,0-0.5,0.2-0.5,0.5v1.5h-4c-0.5,0-1,0.5-1,1v1
			c0,0.5,0.5,1,1,1h13c0.5,0,1-0.5,1-1v-1C23.1,8.4,22.6,7.9,22.1,7.9z M14.1,7.9v-1h3v1H14.1z"/>
	</g>
</g>
<g>
	<path class="st4" d="M19.4,38.8C8.7,38.8,0,30.1,0,19.4S8.7,0,19.4,0s19.4,8.7,19.4,19.4S30.1,38.8,19.4,38.8z M19.4,1
		C9.3,1,1,9.3,1,19.4c0,10.2,8.3,18.4,18.4,18.4c10.2,0,18.4-8.3,18.4-18.4C37.8,9.3,29.6,1,19.4,1z"/>
	<g>
		<path class="st3" d="M22.9,25.4h-1v-8h-2v8h-1v-8h-2v8h-1v-8h-2v9.5c0,0.3,0.2,0.5,0.5,0.5h10c0.3,0,0.5-0.2,0.5-0.5v-9.5h-2V25.4
			z"/>
		<path class="st3" d="M25.9,13.4h-4v-1.5c0-0.3-0.2-0.5-0.5-0.5h-4c-0.3,0-0.5,0.2-0.5,0.5v1.5h-4c-0.5,0-1,0.5-1,1v1
			c0,0.5,0.5,1,1,1h13c0.5,0,1-0.5,1-1v-1C26.9,13.9,26.5,13.4,25.9,13.4z M17.9,13.4v-1h3v1H17.9z"/>
	</g>
</g>
</svg>
