<?xml version="1.0" encoding="utf-8"?>
<!-- Generator: Adobe Illustrator 17.1.0, SVG Export Plug-In . SVG Version: 6.00 Build 0)  -->
<!DOCTYPE svg PUBLIC "-//W3C//DTD SVG 1.1//EN" "http://www.w3.org/Graphics/SVG/1.1/DTD/svg11.dtd">
<svg version="1.1" id="Layer_1" xmlns="http://www.w3.org/2000/svg" xmlns:xlink="http://www.w3.org/1999/xlink" x="0px" y="0px"
	 viewBox="0 0 24.8 24.8" style="enable-background:new 0 0 24.8 24.8;" xml:space="preserve">
<style type="text/css">
	.st0{fill:#64666D;}
</style>
<path class="st0" d="M4.8,3.2C4.6,3,4.6,2.7,4.9,2.5c0.9-0.7,1.8-1.2,2.8-1.6c0.3-0.1,0.5,0,0.7,0.3c0.1,0.3,0,0.5-0.3,0.7
	C7.1,2.2,6.3,2.7,5.5,3.3C5.4,3.4,5.3,3.4,5.2,3.4C5.1,3.5,4.9,3.4,4.8,3.2z M1.1,13.8c-0.1-1-0.1-2,0-2.9c0-0.3-0.2-0.5-0.4-0.6
	c-0.3,0-0.5,0.2-0.6,0.4c-0.1,1.1-0.1,2.1,0,3.2l0,0c0,0.3,0.3,0.5,0.6,0.4S1.1,14.1,1.1,13.8z M1.2,8.3c0.1,0,0.2,0,0.3,0
	c0.2,0,0.3-0.1,0.4-0.3c0.4-0.9,0.9-1.8,1.5-2.6c0.2-0.2,0.1-0.5-0.1-0.7C3.1,4.6,2.7,4.6,2.6,4.8C1.9,5.7,1.4,6.6,1,7.6
	C0.8,7.9,1,8.2,1.2,8.3z M22.9,8c0.1,0.2,0.3,0.3,0.5,0.3c0,0,0.1,0,0.1,0c0.3-0.1,0.4-0.4,0.3-0.7c-0.4-1-1-1.9-1.6-2.8
	c-0.2-0.2-0.5-0.3-0.7-0.1c-0.2,0.2-0.3,0.5-0.1,0.7C22,6.3,22.5,7.1,22.9,8z M11,1.1c1-0.1,2-0.1,2.9,0c0,0,0.1,0,0.1,0
	c0.2,0,0.4-0.2,0.4-0.4c0-0.3-0.2-0.5-0.4-0.6C13,0,11.9,0,10.8,0.1l0,0c-0.3,0-0.5,0.3-0.4,0.6S10.7,1.1,11,1.1z M16.7,1.9
	c0.9,0.4,1.8,0.9,2.6,1.5c0.1,0.1,0.2,0.1,0.4,0.1s0.2-0.1,0.3-0.2c0.2-0.2,0.1-0.5-0.1-0.7c-0.9-0.7-1.8-1.2-2.8-1.6
	c-0.3-0.1-0.5,0-0.7,0.3C16.4,1.5,16.5,1.8,16.7,1.9z M13.9,23.7L13.9,23.7c-1.1,0.1-2.1,0.1-3,0c-0.3,0-0.5,0.2-0.6,0.4
	c0,0.3,0.2,0.5,0.4,0.6c1.1,0.1,2.1,0.1,3.2,0c0,0,0,0,0,0c0.3,0,0.5-0.3,0.4-0.6C14.3,23.8,14.1,23.7,13.9,23.7z M23.5,16.5
	c-0.3-0.1-0.5,0-0.7,0.3c-0.4,0.9-0.9,1.8-1.5,2.6c-0.2,0.2-0.1,0.5,0.1,0.7c0.1,0.1,0.2,0.1,0.4,0.1s0.2-0.1,0.3-0.2
	c0.7-0.9,1.2-1.8,1.6-2.8C23.9,16.9,23.8,16.6,23.5,16.5z M24.6,10.8c0-0.3-0.3-0.4-0.6-0.4c-0.3,0-0.5,0.3-0.4,0.6c0.1,1,0.1,2,0,3
	c0,0.3,0.2,0.5,0.4,0.6c0,0,0.1,0,0.1,0c0.2,0,0.4-0.2,0.4-0.4C24.8,13,24.8,11.9,24.6,10.8l-0.5,0.1L24.6,10.8z M19.3,21.4
	c-0.8,0.6-1.7,1.1-2.6,1.5c-0.3,0.1-0.4,0.4-0.3,0.7c0.1,0.2,0.3,0.3,0.5,0.3c0,0,0.1,0,0.1,0c1-0.4,1.9-0.9,2.8-1.6
	c0.2-0.2,0.3-0.5,0.1-0.7C19.8,21.3,19.5,21.3,19.3,21.4z M1.8,16.7c-0.1-0.3-0.4-0.4-0.7-0.3c-0.3,0.1-0.4,0.4-0.3,0.7
	c0.4,1,0.9,1.9,1.6,2.8C2.6,20,2.8,20.1,3,20.1c0.1,0,0.2,0,0.2-0.1c0.2-0.2,0.3-0.5,0.1-0.7C2.7,18.5,2.2,17.6,1.8,16.7z M8,22.9
	c-0.9-0.4-1.8-0.9-2.6-1.5c-0.2-0.2-0.5-0.1-0.7,0.1c-0.2,0.2-0.1,0.5,0.1,0.7c0.9,0.7,1.8,1.2,2.8,1.6c0.1,0,0.2,0,0.3,0
	c0.2,0,0.3-0.1,0.4-0.3C8.4,23.3,8.2,23,8,22.9z M17.6,11.6h-4.3V7h-1.6v4.7H7.4v1.5h4.3v4.7h1.6v-4.7h4.3V11.6z"/>
</svg>
