<?xml version="1.0" encoding="utf-8"?>
<!-- Generator: Adobe Illustrator 17.1.0, SVG Export Plug-In . SVG Version: 6.00 Build 0)  -->
<!DOCTYPE svg PUBLIC "-//W3C//DTD SVG 1.1//EN" "http://www.w3.org/Graphics/SVG/1.1/DTD/svg11.dtd">
<svg version="1.1" id="Layer_1" xmlns="http://www.w3.org/2000/svg" xmlns:xlink="http://www.w3.org/1999/xlink" x="0px" y="0px"
	 viewBox="0 0 16.9 21.4" enable-background="new 0 0 16.9 21.4" xml:space="preserve">
<g opacity="0.75">
	<g>
		<g>
			<g>
				<g>
					<g>
						<path fill="#F2F1F1" d="M1.9,14.4L1.9,14.4L1.9,14.4c0.2,0.3,0.5,0.6,0.8,0.9l5.7,6.1l5.8-6.1c0.3-0.3,0.5-0.5,0.8-0.8l0,0
							l0,0c1.2-1.4,1.9-3.3,1.9-5.3V8.4c0-4.7-3.8-8.4-8.4-8.4C3.8,0,0,3.8,0,8.4v0.7C0,11.1,0.7,13,1.9,14.4z M2.1,8.4
							c0-3.5,2.8-6.3,6.3-6.3c3.5,0,6.3,2.8,6.3,6.3v0.7c0,3.5-2.8,6.3-6.3,6.3c-3.5,0-6.3-2.8-6.3-6.3V8.4z"/>
					</g>
				</g>
			</g>
		</g>
		<g>
			<path fill="#F2F1F1" d="M8,9.3H5.6V8.5H8V5.7h0.8v2.7h2.5v0.8H8.8v2.8H8V9.3z"/>
		</g>
	</g>
</g>
</svg>
