<?xml version="1.0" encoding="utf-8"?>
<!-- Generator: Adobe Illustrator 17.1.0, SVG Export Plug-In . SVG Version: 6.00 Build 0)  -->
<!DOCTYPE svg PUBLIC "-//W3C//DTD SVG 1.1//EN" "http://www.w3.org/Graphics/SVG/1.1/DTD/svg11.dtd">
<svg version="1.1" id="Layer_1" xmlns="http://www.w3.org/2000/svg" xmlns:xlink="http://www.w3.org/1999/xlink" x="0px" y="0px"
	 viewBox="0 0 16.9 18" enable-background="new 0 0 16.9 18" xml:space="preserve">
<g opacity="0.75">
	<path fill="#F2F1F1" d="M16.3,3.4h-3.9V2.2C12.4,0,11.2,0,10.1,0S9,0,6.7,0S4.5,1.1,4.5,2.2c0,0.4,0,0.5,0,0.5v0.6H0.6
		C0.3,3.4,0,3.6,0,3.9v1.1c0,0.3,0.3,0.6,0.6,0.6h15.7c0.3,0,0.6-0.3,0.6-0.6V3.9C16.9,3.6,16.6,3.4,16.3,3.4z M10.1,3.4H6.7V2.2
		h3.4V3.4z"/>
	<path fill="#F2F1F1" d="M12.4,6.8v8.3c0,0.3-0.3,0.6-0.6,0.6c-0.3,0-0.6-0.3-0.6-0.6V6.8l0-0.1H9l0,0.1v8.3c0,0.3-0.3,0.6-0.6,0.6
		c-0.3,0-0.6-0.3-0.6-0.6V6.8l0-0.1H5.6l0,0.1v8.3c0,0.3-0.3,0.6-0.6,0.6c-0.3,0-0.6-0.3-0.6-0.6V6.8l0-0.1H2.2v10.7
		c0,0.3,0.3,0.6,0.6,0.6H14c0.3,0,0.6-0.3,0.6-0.6V6.7L12.4,6.8L12.4,6.8z"/>
</g>
</svg>
