<?xml version="1.0" encoding="utf-8"?>
<!-- Generator: Adobe Illustrator 17.1.0, SVG Export Plug-In . SVG Version: 6.00 Build 0)  -->
<!DOCTYPE svg PUBLIC "-//W3C//DTD SVG 1.1//EN" "http://www.w3.org/Graphics/SVG/1.1/DTD/svg11.dtd">
<svg version="1.1" id="Layer_1" xmlns="http://www.w3.org/2000/svg" xmlns:xlink="http://www.w3.org/1999/xlink" x="0px" y="0px"
	 viewBox="0 0 16.9 18" style="enable-background:new 0 0 16.9 18;" xml:space="preserve">
<style type="text/css">
	.st0{opacity:0.6;}
	.st1{fill:#6A6A75;}
</style>
<g class="st0">
	<g>
		<path class="st1" d="M12.4,15.8h-1.1v-9H9v9H7.9v-9H5.6v9H4.5v-9H2.2v10.7c0,0.3,0.3,0.6,0.6,0.6h11.3c0.3,0,0.6-0.3,0.6-0.6V6.8
			h-2.2V15.8z"/>
		<path class="st1" d="M15.7,2.3h-4.5V0.6C11.2,0.3,11,0,10.7,0H6.2C5.9,0,5.6,0.3,5.6,0.6v1.7H1.1C0.5,2.3,0,2.8,0,3.4v1.1
			c0,0.6,0.5,1.1,1.1,1.1h14.6c0.6,0,1.1-0.5,1.1-1.1V3.4C16.9,2.8,16.4,2.3,15.7,2.3z M6.7,2.3V1.1h3.4v1.1H6.7z"/>
	</g>
</g>
</svg>
