<?xml version="1.0" encoding="utf-8"?>
<!-- Generator: Adobe Illustrator 17.1.0, SVG Export Plug-In . SVG Version: 6.00 Build 0)  -->
<!DOCTYPE svg PUBLIC "-//W3C//DTD SVG 1.1//EN" "http://www.w3.org/Graphics/SVG/1.1/DTD/svg11.dtd">
<svg version="1.1" id="Layer_1" xmlns="http://www.w3.org/2000/svg" xmlns:xlink="http://www.w3.org/1999/xlink" x="0px" y="0px"
	 viewBox="0 0 104.2 79.6" style="enable-background:new 0 0 104.2 79.6;" xml:space="preserve">
<style type="text/css">
	.st0{fill:none;}
	.st1{fill:#E7E7E9;}
	.st2{fill:#DDDDDF;}
</style>
<path class="st0" d="M8.6,70.3l51.2-40.7c0.9-0.9,2.4-0.9,3.3,0l23.5,23.5c0.8,0.8,1.3,1.9,1.3,3.1v12.2c0,1.1-0.9,2-2,2H8.6z"/>
<path class="st1" d="M87.8,68.3V56.1c0-0.6-0.2-1.3-0.4-1.9L87,53.6c-0.1-0.2-0.3-0.4-0.4-0.5L63.1,29.6c-0.9-0.9-2.4-0.9-3.3,0
	L9.3,69.8c0.4,0.3,0.8,0.5,1.3,0.5h75.2C86.9,70.3,87.8,69.4,87.8,68.3z"/>
<g>
	<path class="st2" d="M92.8,27.5v47.3c0,0.4-0.3,0.7-0.6,0.7H4.6c-0.3,0-0.6-0.3-0.6-0.7V12.1c0-0.4,0.3-0.7,0.6-0.7H76
		c-0.1-0.7-0.1-1.4-0.1-2.2c0-0.6,0-1.2,0.1-1.8H4.6C2.1,7.4,0,9.5,0,12.1v62.7c0,2.6,2.1,4.7,4.6,4.7h87.5c2.6,0,4.6-2.1,4.6-4.7
		V27.4c-0.8,0.1-1.6,0.2-2.5,0.2C93.8,27.6,93.3,27.6,92.8,27.5z"/>
	<path class="st2" d="M20.2,42.7L10.1,52.9c-0.9,0.9-1.5,2.2-1.5,3.6v11.9c0,1.1,0.9,2,2,2h38.1L23.5,42.7
		C22.6,41.8,21.1,41.8,20.2,42.7z"/>
	<path class="st2" d="M103.6,7.4h-6.8V0.6c0-0.3-0.3-0.6-0.6-0.6h-3.4c-0.3,0-0.6,0.3-0.6,0.6v6.8h-6.8c-0.3,0-0.6,0.3-0.6,0.6v3.4
		c0,0.3,0.3,0.6,0.6,0.6h6.8v6.8c0,0.3,0.3,0.6,0.6,0.6h3.4c0.3,0,0.6-0.3,0.6-0.6v-6.8h6.8c0.3,0,0.6-0.3,0.6-0.6V8
		C104.2,7.7,103.9,7.4,103.6,7.4z"/>
	<circle class="st2" cx="32.4" cy="27.6" r="5.8"/>
	<path class="st2" d="M61.7,28.9L72,70.3h13.9c1.1,0,2-0.9,2-2V56.1c0-1.2-0.5-2.3-1.3-3.1l-18-18l-5.6-5.6
		C62.7,29.2,62.2,29,61.7,28.9z"/>
</g>
</svg>
