<?xml version="1.0" encoding="utf-8"?>
<!-- Generator: Adobe Illustrator 17.1.0, SVG Export Plug-In . SVG Version: 6.00 Build 0)  -->
<!DOCTYPE svg PUBLIC "-//W3C//DTD SVG 1.1//EN" "http://www.w3.org/Graphics/SVG/1.1/DTD/svg11.dtd">
<svg version="1.1" id="Layer_1" xmlns="http://www.w3.org/2000/svg" xmlns:xlink="http://www.w3.org/1999/xlink" x="0px" y="0px"
	 viewBox="0 0 96.8 72.2" style="enable-background:new 0 0 96.8 72.2;" xml:space="preserve">
<style type="text/css">
	.st0{clip-path:url(#SVGID_2_);fill:#E7E7E9;}
	.st1{clip-path:url(#SVGID_2_);fill:#DDDDDF;}
	.st2{fill:#DDDDDF;}
	.st3{fill:#D7D7DA;}
</style>
<g>
	<g>
		<g>
			<defs>
				<path id="SVGID_1_" d="M14,62.9l0.8-4.9l45-35.8c0.9-0.9,2.4-0.9,3.3,0l23.5,23.5c0.8,0.8,1.3,1.9,1.3,3.1v12.2c0,1.1-0.9,2-2,2
					H14z"/>
			</defs>
			<clipPath id="SVGID_2_">
				<use xlink:href="#SVGID_1_"  style="overflow:visible;"/>
			</clipPath>
			<path class="st0" d="M8.6,62.9l51.2-40.7c0.9-0.9,2.4-0.9,3.3,0l24.8,24.8v16H8.6z"/>
			<polygon class="st1" points="61.4,20.5 72,62.9 87.8,62.9 87.8,46.9 			"/>
		</g>
		<path class="st2" d="M8.6,60.9V49c0-1.3,0.5-2.6,1.5-3.6l10.1-10.1c0.9-0.9,2.4-0.9,3.3,0l25.3,27.5H10.6
			C9.5,62.9,8.6,62,8.6,60.9z"/>
		<circle class="st2" cx="32.4" cy="20.2" r="5.8"/>
	</g>
	<g>
		<path class="st3" d="M76,0H4.6C2.1,0,0,2.1,0,4.7v62.7c0,2.6,2.1,4.7,4.6,4.7h87.5c2.6,0,4.6-2.1,4.6-4.7V20
			c-0.8,0.1-1.6,0.2-2.5,0.2c-0.5,0-1,0-1.5-0.1v47.3c0,0.4-0.3,0.7-0.6,0.7H4.6c-0.3,0-0.6-0.3-0.6-0.7V4.7C4,4.3,4.3,4,4.6,4H76
			c-0.1-0.7-0.1-1.4-0.1-2.2C75.9,1.2,75.9,0.6,76,0L76,0z"/>
	</g>
</g>
</svg>
