<?xml version="1.0" encoding="utf-8"?>
<!-- Generator: Adobe Illustrator 17.1.0, SVG Export Plug-In . SVG Version: 6.00 Build 0)  -->
<!DOCTYPE svg PUBLIC "-//W3C//DTD SVG 1.1//EN" "http://www.w3.org/Graphics/SVG/1.1/DTD/svg11.dtd">
<svg version="1.1" id="Layer_1" xmlns="http://www.w3.org/2000/svg" xmlns:xlink="http://www.w3.org/1999/xlink" x="0px" y="0px"
	 viewBox="0 0 19.5 19.5" style="enable-background:new 0 0 19.5 19.5;" xml:space="preserve">
<style type="text/css">
	.st0{fill:#53555F;}
</style>
<g>
	<rect x="4.9" y="9.1" transform="matrix(-0.7071 0.7071 -0.7071 -0.7071 23.5493 9.7531)" class="st0" width="9.7" height="1.2"/>
	<path class="st0" d="M8.5,13.6L5,17.1l-2.6-2.6L5.9,11l1.7-1.7c-0.9-0.9-2.5-0.9-3.4,0l-3.4,3.4c-0.9,0.9-0.9,2.5,0,3.4l2.6,2.6
		c0.9,0.9,2.5,0.9,3.4,0l3.4-3.4c0.9-0.9,0.9-2.5,0-3.4L8.5,13.6z"/>
	<path class="st0" d="M18.8,3.3l-2.6-2.6c-0.9-0.9-2.5-0.9-3.4,0L9.3,4.2c-0.9,0.9-0.9,2.5,0,3.4L11,5.9l2.6-2.6l0.9-0.9L17.1,5
		l-0.9,0.9l-4.3,4.3c0.9,0.9,2.5,0.9,3.4,0l3.4-3.4C19.7,5.8,19.7,4.2,18.8,3.3z"/>
</g>
</svg>
