<?xml version="1.0" encoding="utf-8"?>
<!-- Generator: Adobe Illustrator 17.1.0, SVG Export Plug-In . SVG Version: 6.00 Build 0)  -->
<!DOCTYPE svg PUBLIC "-//W3C//DTD SVG 1.1//EN" "http://www.w3.org/Graphics/SVG/1.1/DTD/svg11.dtd">
<svg version="1.1" id="Layer_1" xmlns="http://www.w3.org/2000/svg" xmlns:xlink="http://www.w3.org/1999/xlink" x="0px" y="0px"
	 viewBox="0 0 26.4 23.1" style="enable-background:new 0 0 26.4 23.1;" xml:space="preserve">
<style type="text/css">
	.st0{opacity:0.75;}
	.st1{fill:#53555F;}
</style>
<g class="st0">
	<g>
		<path class="st1" d="M23.1,7.5L23.1,7.5c0-4.2-3.3-7.5-7.4-7.5c-2.8,0-5.1,1.5-6.4,3.7C8.7,3.5,8.1,3.3,7.4,3.3
			c-2.3,0-4.1,1.8-4.1,4.1l0,0.1C1.3,8.7,0,10.8,0,13.2c0,3.6,3,6.6,6.6,6.6h1.7v-1.7H6.6c-2.7,0-5-2.2-5-5c0-1.7,1-3.4,2.5-4.3
			L5,8.5V7.5l0-0.2C5,6,6.1,5,7.4,5C7.8,5,8.2,5,8.5,5.2l1.4,0.7l0.8-1.4c1.1-1.8,2.9-2.9,5-2.9c3.2,0,5.7,2.5,5.8,5.7l0,0.1v1.1
			l0.8,0.5c1.5,0.9,2.5,2.5,2.5,4.3c0,2.7-2.2,5-5,5h-1.7v1.7h1.7c3.6,0,6.6-3,6.6-6.6C26.4,10.8,25.1,8.7,23.1,7.5z"/>
		<polygon class="st1" points="13.2,8.3 8.3,14.9 11.6,14.9 11.6,23.1 14.9,23.1 14.9,14.9 18.2,14.9 		"/>
	</g>
</g>
</svg>
