<?xml version="1.0" encoding="utf-8"?>
<!-- Generator: Adobe Illustrator 17.1.0, SVG Export Plug-In . SVG Version: 6.00 Build 0)  -->
<!DOCTYPE svg PUBLIC "-//W3C//DTD SVG 1.1//EN" "http://www.w3.org/Graphics/SVG/1.1/DTD/svg11.dtd">
<svg version="1.1" id="Layer_1" xmlns="http://www.w3.org/2000/svg" xmlns:xlink="http://www.w3.org/1999/xlink" x="0px" y="0px"
	 viewBox="0 0 90.5 100.8" style="enable-background:new 0 0 90.5 100.8;" xml:space="preserve">
<style type="text/css">
	.st0{fill:#D0D0D0;}
	.st1{fill:none;stroke:#D0D0D0;stroke-miterlimit:10;}
	.st2{fill:#409DC9;}
	.st3{fill:#80BEDB;}
	.st4{fill:#59AAD0;}
	.st5{fill:#429FC9;}
	.st6{fill:#FFFFFF;}
</style>
<g>
	<g>
		<g>
			<polygon class="st0" points="43.5,93 66.4,44.1 67.3,44.5 46.9,88.1 89.4,44.2 90.1,44.9 			"/>
			<rect x="9.1" y="67" transform="matrix(0.4217 0.9067 -0.9067 0.4217 81.2093 7.7596)" class="st0" width="50.8" height="1"/>
			<g>
				<g>
					<polygon class="st0" points="44.9,90.9 0.4,44.9 1.1,44.2 45.6,90.2 					"/>
					<path class="st1" d="M45.2,90.6"/>
					<path class="st2" d="M45.2,44.9H0.4C0.4,20.1,20.4,0,45.2,0C45.2,0,45.2,20.1,45.2,44.9z"/>
					<path class="st3" d="M90.1,44.9H45.2c0-24.8,0-44.9,0-44.9C70,0,90.1,20.1,90.1,44.9z"/>
					<path class="st2" d="M45.2,44.9H11.8C11.8,20.1,26.7,0,45.2,0C45.2,0,45.2,20.1,45.2,44.9z"/>
					<path class="st4" d="M45.2,44.9H24C24,20.1,33.5,0,45.2,0C45.2,0,45.2,20.1,45.2,44.9z"/>
					<path class="st3" d="M45.2,44.9h33.5C78.7,20.1,63.7,0,45.2,0C45.2,0,45.2,20.1,45.2,44.9z"/>
					<path class="st4" d="M45.3,44.9h21.2C66.5,20.1,57,0,45.3,0C45.3,0,45.3,20.1,45.3,44.9z"/>
					<path class="st4" d="M52.6,44.9H37.9C37.9,20.1,41.2,0,45.2,0C49.3,0,52.6,20.1,52.6,44.9z"/>
					<path class="st5" d="M57.3,100.8H33.2c-0.7,0-1.3-0.6-1.3-1.3v-18c0-0.7,0.6-1.3,1.3-1.3h24.1c0.7,0,1.3,0.6,1.3,1.3v18
						C58.6,100.3,58,100.8,57.3,100.8z"/>
				</g>
			</g>
		</g>
	</g>
	<g>
		<path class="st6" d="M55.2,93.1l-6-6c-0.2-0.2-0.6-0.2-0.8,0l-7.1,5.7l-2.1-2.3c-0.2-0.2-0.6-0.2-0.8,0L35.8,93
			c-0.2,0.2-0.4,0.6-0.4,0.9v3c0,0.3,0.2,0.5,0.5,0.5h1.7h8H55c0.3,0,0.5-0.2,0.5-0.5v-3.1C55.5,93.5,55.4,93.3,55.2,93.1z"/>
		<circle class="st6" cx="41.5" cy="86.6" r="1.5"/>
	</g>
</g>
</svg>
