<?xml version="1.0" encoding="utf-8"?>
<!-- Generator: Adobe Illustrator 17.1.0, SVG Export Plug-In . SVG Version: 6.00 Build 0)  -->
<!DOCTYPE svg PUBLIC "-//W3C//DTD SVG 1.1//EN" "http://www.w3.org/Graphics/SVG/1.1/DTD/svg11.dtd">
<svg version="1.1" id="Layer_1" xmlns="http://www.w3.org/2000/svg" xmlns:xlink="http://www.w3.org/1999/xlink" x="0px" y="0px"
	 viewBox="0 0 13.1 14" style="enable-background:new 0 0 13.1 14;" xml:space="preserve">
<style type="text/css">
	.st0{fill:#FFFFFF;}
</style>
<g>
	<path class="st0" d="M12.7,2.6H9.6V1.7C9.6,0,8.7,0,7.9,0S7,0,5.2,0S3.5,0.9,3.5,1.7c0,0.3,0,0.4,0,0.4v0.5H0.4C0.2,2.6,0,2.8,0,3
		v1c0,0.2,0.2,0.4,0.4,0.4h12.4c0.2,0,0.4-0.2,0.4-0.4V3C13.1,2.8,13,2.6,12.7,2.6z M7.9,2.6H5.2V1.7h2.6V2.6z"/>
	<path class="st0" d="M9.6,5.3v6.5c0,0.2-0.2,0.4-0.4,0.4c-0.2,0-0.4-0.2-0.4-0.4V5.3l0-0.1H7l0,0.1v6.5c0,0.2-0.2,0.4-0.4,0.4
		c-0.2,0-0.4-0.2-0.4-0.4V5.3l0-0.1H4.4l0,0.1v6.5c0,0.2-0.2,0.4-0.4,0.4c-0.2,0-0.4-0.2-0.4-0.4V5.3l0-0.1H1.7v8.3
		c0,0.2,0.2,0.4,0.4,0.4h8.7c0.2,0,0.4-0.2,0.4-0.4V5.2L9.6,5.3L9.6,5.3z"/>
</g>
</svg>
